<?xml version="1.0" encoding="utf-8"?>
<!-- Generator: Adobe Illustrator 22.0.1, SVG Export Plug-In . SVG Version: 6.00 Build 0)  -->
<svg version="1.1" id="Capa_1" xmlns="http://www.w3.org/2000/svg" xmlns:xlink="http://www.w3.org/1999/xlink" x="0px" y="0px"
	 viewBox="0 0 480 480" style="enable-background:new 0 0 480 480;" xml:space="preserve">
<style type="text/css">
	.st0{fill:#3B1A53;}
	.st1{fill:#FAAF41;}
</style>
<circle class="st0" cx="242.5" cy="240" r="225.7"/>
<g>
	<path class="st1" d="M184.7,149.9h8.3v-20.6h-12.2l20.5-26.3l20.5,26.3h-12.2v37.2h8.3v-28.9h20.8l-37.3-48l-37.3,48h20.8V149.9z"
		/>
	<path class="st1" d="M267.2,170.6h8.3v-28.9h-12.2l20.5-26.3l20.5,26.3H292v20.6h8.3v-12.4h20.8l-37.3-48l-37.3,48h20.8V170.6z"/>
	<path class="st1" d="M374.6,289.4v-85.2c0-12.1-4.7-23.5-13.3-32.1l-17.6-17.6c-2.9-2.9-6.8-4.5-10.9-4.5h-0.5
		c-8.5,0-15.4,6.9-15.4,15.4v0.5c0,4.1,1.6,8,4.5,10.9l2.7,2.7c-6.5,1.8-11.3,7.7-11.3,14.8c0,4.5,2,8.8,5.4,11.7l23.5,20.2V238
		c0,3.3-1.3,6.4-3.6,8.8l-4.6,4.6v-10.7c0-9.1-7.4-16.5-16.5-16.5c-3.6,0-7,1.2-9.7,3.2c-6.1-27.8-30.9-48.7-60.5-48.7
		s-54.4,20.9-60.5,48.7c-2.7-2-6.1-3.2-9.7-3.2c-9.1,0-16.5,7.4-16.5,16.5v10.7l-4.6-4.6c-2.3-2.3-3.6-5.5-3.6-8.8v-11.9l23.5-20.2
		c3.4-2.9,5.4-7.2,5.4-11.7c0-7.1-4.8-13-11.3-14.8l2.7-2.7c2.9-2.9,4.5-6.9,4.5-10.9v-0.5c0-8.5-6.9-15.4-15.4-15.4h-0.5
		c-4.1,0-8,1.6-10.9,4.5l-17.6,17.6c-8.6,8.6-13.3,20-13.3,32.1v85.2c0,6.7,1.8,13.3,5.3,19.1l3.9,6.5h-9.2v33h66.1v-33h-8.3v-6.2
		l8.3-6.2c5.2-3.9,8.3-10.1,8.3-16.5v-14.6c10.7,18.6,30.7,31.2,53.7,31.2s43-12.6,53.7-31.2v14.6c0,6.5,3.1,12.6,8.3,16.5l8.3,6.2
		v6.2h-8.3v33h66.1v-33h-9.2l3.9-6.5C372.8,302.7,374.6,296.1,374.6,289.4L374.6,289.4z M323.4,199.7c-1.6-1.4-2.5-3.4-2.5-5.5
		c0-4,3.2-7.2,7.2-7.2h3.5l6.3,6.3c2.3,2.3,3.6,5.5,3.6,8.8v13.1L323.4,199.7z M165.1,187.1c4,0,7.2,3.2,7.2,7.2
		c0,2.1-0.9,4.1-2.5,5.5l-18.1,15.5v-13.1c0-3.3,1.3-6.4,3.6-8.8l6.3-6.3H165.1z M176.4,339.8h-49.5v-16.5h49.5V339.8z M184.7,286.2
		c0,3.9-1.9,7.6-5,9.9l-11.6,8.7v10.3h-30.7l-6.5-10.8c-2.7-4.5-4.1-9.6-4.1-14.9v-85.2c0-9.9,3.9-19.3,10.9-26.3l17.6-17.6
		c1.4-1.4,3.2-2.1,5.1-2.1h0.5c4,0,7.2,3.2,7.2,7.2v0.5c0,1.9-0.8,3.7-2.1,5.1l-16.6,16.6c-3.9,3.9-6,9.1-6,14.6V238
		c0,5.5,2.1,10.7,6,14.6l10.5,10.5v6.5h8.3v-28.9c0-4.6,3.7-8.3,8.3-8.3s8.3,3.7,8.3,8.3V286.2z M246.6,294.4
		c-29.6,0-53.7-24.1-53.7-53.7s24.1-53.7,53.7-53.7s53.7,24.1,53.7,53.7S276.2,294.4,246.6,294.4z M366.3,339.8h-49.5v-16.5h49.5
		V339.8z M366.3,289.4c0,5.2-1.4,10.4-4.1,14.9l-6.5,10.8h-30.7v-10.3l-11.6-8.7c-3.1-2.3-5-6-5-9.9v-45.4c0-4.6,3.7-8.3,8.3-8.3
		s8.3,3.7,8.3,8.3v28.9h8.3v-6.5l10.5-10.5c3.9-3.9,6-9.1,6-14.6v-35.9c0-5.5-2.1-10.7-6-14.6l-16.6-16.6c-1.3-1.3-2.1-3.2-2.1-5.1
		v-0.5c0-4,3.2-7.2,7.2-7.2h0.5c1.9,0,3.7,0.7,5.1,2.1l17.6,17.6c7,7,10.9,16.4,10.9,26.3L366.3,289.4z"/>
	<path class="st1" d="M242.5,220.1h8.3c4.6,0,8.3,3.7,8.3,8.3h8.3c0-9.1-7.4-16.5-16.5-16.5v-8.3h-8.3v8.3
		c-9.1,0-16.5,7.4-16.5,16.5s7.4,16.5,16.5,16.5h8.3c4.6,0,8.3,3.7,8.3,8.3s-3.7,8.3-8.3,8.3h-8.3c-4.6,0-8.3-3.7-8.3-8.3H226
		c0,9.1,7.4,16.5,16.5,16.5v8.3h8.3v-8.3c9.1,0,16.5-7.4,16.5-16.5s-7.4-16.5-16.5-16.5h-8.3c-4.6,0-8.3-3.7-8.3-8.3
		C234.2,223.8,237.9,220.1,242.5,220.1z"/>
	<path class="st1" d="M184.7,158.2h8.3v8.3h-8.3V158.2z"/>
	<path class="st1" d="M292,170.6h8.3v8.3H292V170.6z"/>
	<path class="st1" d="M283.8,236.6h8.3v8.3h-8.3V236.6z"/>
	<path class="st1" d="M201.2,236.6h8.3v8.3h-8.3V236.6z"/>
</g>
</svg>
