<?xml version="1.0" encoding="utf-8"?>
<!-- Generator: Adobe Illustrator 22.0.1, SVG Export Plug-In . SVG Version: 6.00 Build 0)  -->
<svg version="1.1" id="Capa_1" xmlns="http://www.w3.org/2000/svg" xmlns:xlink="http://www.w3.org/1999/xlink" x="0px" y="0px"
	 viewBox="0 0 480 480" style="enable-background:new 0 0 480 480;" xml:space="preserve">
<style type="text/css">
	.st0{fill:#3B1A53;}
	.st1{fill:#FAAF41;}
</style>
<circle class="st0" cx="242.5" cy="240" r="225.7"/>
<g>
	<path class="st1" d="M312,286.3l-9.9-6c-3-1.8-6.5-2.8-10-2.8h-15c-3.1,0-6.1,0.4-9.1,1.2l-45.1,12.1c-4.9,1.4-8.9,5-10.6,9.8
		l-39.7-21.5c-3.2-1.8-7-2.5-10.6-1.8c-1.4,0.2-2.7,0.7-3.9,1.3c-2.8,1.3-5.2,3.5-6.7,6.2c-1.4,2.4-2.1,5-2.1,7.8
		c0,5.6,2.9,10.7,7.7,13.5l71.1,42.5c3.1,1.9,6.6,2.9,10.3,2.9h55c2.5,0,4.9-0.5,7.2-1.4l11.5-4.5v5.9h39v-78.1h-39V286.3z
		 M297.6,343.1c-1.4,0.5-2.8,0.8-4.3,0.8h-55c-2.2,0-4.4-0.6-6.2-1.8l-71.2-42.6c-2.4-1.4-3.9-4-3.9-6.8c0-1.4,0.4-2.7,1-3.9
		c0.8-1.3,1.9-2.4,3.4-3.1c0.6-0.3,1.3-0.5,2-0.6c0.5-0.1,1-0.1,1.5-0.1c1.3,0,2.7,0.3,3.8,1l43,23.2c0,0.2,0,0.5,0.1,0.7
		c1.8,6.8,8,11.5,15.1,11.6c2.2-0.2,4.3-0.6,6.4-1.1l40.6-10.9l-2-7.5l-40.4,10.8c-1.8,0.4-4.1,0.9-4.6,0.9c-3.5,0-6.6-2.4-7.5-5.8
		c-0.1-0.5-0.2-1-0.2-1.4c0,0,0-0.9,0-1.3c0.3-3.3,2.6-6,5.7-6.9l45.1-12.1c2.3-0.6,4.7-0.9,7.1-0.9h15c2.1,0,4.2,0.6,6,1.7l14,8.4
		v42.1L297.6,343.1z M319.8,281.5h23.4v62.5h-23.4V281.5z M319.8,281.5"/>
	<path class="st1" d="M277.8,148.7l-20.9-20.9c-6.6-6.6-15.5-10.3-24.8-10.3h-49.1c-3,0-6,0.7-8.7,2.1l-8.8,4.4
		c-1.8,0.9-3.7,1.3-5.7,1.2l-4-0.1v-7.5h-39v85.9h39v-11.7h6.6l2.4,1.6c6.6,4.4,14.3,6.9,22.2,7.2v49.8h164V148.7H277.8z M148,195.6
		h-23.4v-70.3H148V195.6z M169.1,186.7l-4.3-2.9h-9v-51l3.7,0.1c3.3,0.1,6.5-0.6,9.4-2l8.7-4.4c1.6-0.8,3.4-1.2,5.2-1.2H232
		c7.3,0,14.2,2.9,19.3,8l15.4,15.4h-32.2l-9.5-9.5l-5.5,5.5l27.6,27.6c3.1,3.1,3.1,8,0,11.1c-3.1,3.1-8,3.1-11.1,0l-23-23l-2.7,2.3
		c-7.5,6.4-18.6,6.6-26.3,0.4l-2.3-1.8l-4.9,6.1l2.3,1.9c2.4,1.9,5.1,3.4,8,4.5v18.9C180.6,192.3,174.4,190.3,169.1,186.7
		L169.1,186.7z M224.6,183.1l5.9,5.9c6.1,6,15.9,6,22.1,0c-5.7,8.9-3.5,20.7,5.1,26.8c8.6,6.1,20.5,4.4,27-3.9
		c6.5-8.3,5.3-20.3-2.7-27.2c-8-6.9-20-6.3-27.3,1.4c2.7-4.2,3.1-9.4,1.3-14h52.3c1.7,9.8,9.4,17.5,19.2,19.2v16.3
		c-9.8,1.7-17.5,9.4-19.2,19.2h-78.7c-1.7-9.8-9.4-17.5-19.2-19.2v-16.3C216,190.4,221.1,187.5,224.6,183.1L224.6,183.1z
		 M257.3,199.5c0-6.5,5.2-11.7,11.7-11.7s11.7,5.2,11.7,11.7s-5.2,11.7-11.7,11.7S257.3,206,257.3,199.5L257.3,199.5z M343.2,242.4
		H194.8v-67.1c6.2,0.5,12.4-1.1,17.6-4.5l6.7,6.7c-2.9,4-7.6,6.3-12.5,6.3h-3.9v31.2h3.9c8.6,0,15.6,7,15.6,15.6v3.9h93.7v-3.9
		c0-8.6,7-15.6,15.6-15.6h3.9v-31.2h-3.9c-8.6,0-15.6-7-15.6-15.6v-3.9h-65.7l-7.8-7.8h100.9V242.4z M343.2,242.4"/>
</g>
</svg>
