<?xml version="1.0" encoding="utf-8"?>
<!-- Generator: Adobe Illustrator 22.0.1, SVG Export Plug-In . SVG Version: 6.00 Build 0)  -->
<svg version="1.1" id="Capa_1" xmlns="http://www.w3.org/2000/svg" xmlns:xlink="http://www.w3.org/1999/xlink" x="0px" y="0px"
	 viewBox="0 0 480 480" style="enable-background:new 0 0 480 480;" xml:space="preserve">
<style type="text/css">
	.st0{fill:#3B1A53;}
	.st1{fill:#FAAF41;}
</style>
<circle class="st0" cx="242.5" cy="240" r="225.7"/>
<g>
	<g>
		<g>
			<path class="st1" d="M333.5,163.4l-7.9-23.8c-0.7-2.1-2.9-3.2-5-2.5c-0.2,0.1-0.4,0.1-0.5,0.2l-23.8,11.9c-2,1-2.8,3.4-1.8,5.3
				c1,2,3.4,2.8,5.3,1.8l13-6.5c-34.1,62.4-96.3,102.1-161.5,102.1v7.9c68.9,0,134.6-42.4,169.8-108.7l4.9,14.8
				c0.7,2.1,2.9,3.2,5,2.5C333.1,167.7,334.2,165.5,333.5,163.4z"/>
		</g>
	</g>
	<g>
		<g>
			<path class="st1" d="M357.5,121H127.4c-2.2,0-4,1.8-4,4v178.5c0,2.2,1.8,4,4,4h70l-14.3,46.4c-0.6,2.1,0.5,4.3,2.6,5
				c2.1,0.6,4.3-0.5,5-2.6l7.7-25h88.1l7.7,25c0.6,2.1,2.9,3.3,5,2.6c2.1-0.6,3.3-2.9,2.6-5l-14.3-46.4h70c2.2,0,4-1.8,4-4V125
				C361.5,122.8,359.7,121,357.5,121z M200.8,323.3l4.9-15.9h73.5l4.9,15.9H200.8z M353.5,299.5H131.4V128.9h222.1V299.5z"/>
		</g>
	</g>
	<g>
		<g>
			<path class="st1" d="M171.1,267.8h-15.9c-2.2,0-4,1.8-4,4v15.9c0,2.2,1.8,4,4,4h15.9c2.2,0,4-1.8,4-4v-15.9
				C175,269.5,173.2,267.8,171.1,267.8z M167.1,283.6h-7.9v-7.9h7.9V283.6z"/>
		</g>
	</g>
	<g>
		<g>
			<path class="st1" d="M210.7,259.8h-15.9c-2.2,0-4,1.8-4,4v23.8c0,2.2,1.8,4,4,4h15.9c2.2,0,4-1.8,4-4v-23.8
				C214.7,261.6,212.9,259.8,210.7,259.8z M206.8,283.6h-7.9v-15.9h7.9V283.6z"/>
		</g>
	</g>
	<g>
		<g>
			<path class="st1" d="M250.4,244h-15.9c-2.2,0-4,1.8-4,4v39.7c0,2.2,1.8,4,4,4h15.9c2.2,0,4-1.8,4-4v-39.7
				C254.4,245.7,252.6,244,250.4,244z M246.4,283.6h-7.9v-31.7h7.9V283.6z"/>
		</g>
	</g>
	<g>
		<g>
			<path class="st1" d="M290.1,220.2h-15.9c-2.2,0-4,1.8-4,4v63.5c0,2.2,1.8,4,4,4h15.9c2.2,0,4-1.8,4-4v-63.5
				C294,221.9,292.2,220.2,290.1,220.2z M286.1,283.6h-7.9v-55.5h7.9V283.6z"/>
		</g>
	</g>
	<g>
		<g>
			<path class="st1" d="M329.7,176.5h-15.9c-2.2,0-4,1.8-4,4v107.1c0,2.2,1.8,4,4,4h15.9c2.2,0,4-1.8,4-4V180.5
				C333.7,178.3,331.9,176.5,329.7,176.5z M325.8,283.6h-7.9v-99.2h7.9V283.6z"/>
		</g>
	</g>
</g>
</svg>
