<?xml version="1.0" encoding="utf-8"?>
<!-- Generator: Adobe Illustrator 22.0.1, SVG Export Plug-In . SVG Version: 6.00 Build 0)  -->
<svg version="1.1" id="Capa_1" xmlns="http://www.w3.org/2000/svg" xmlns:xlink="http://www.w3.org/1999/xlink" x="0px" y="0px"
	 viewBox="0 0 480 480" style="enable-background:new 0 0 480 480;" xml:space="preserve">
<style type="text/css">
	.st0{fill:#3B1A53;}
	.st1{fill:#FAAF41;}
</style>
<circle class="st0" cx="242.5" cy="240" r="225.7"/>
<g>
	<path class="st1" d="M297.6,286.7c4.7,0,8.5,3.8,8.5,8.5h8.5c0-7.9-5.4-14.5-12.7-16.4v-9.1h-8.5v8.5h-12.7v17c0,9.4,7.6,17,17,17
		c4.7,0,8.5,3.8,8.5,8.5v8.5h-8.5c-4.7,0-8.5-3.8-8.5-8.5h-8.5c0,7.9,5.4,14.5,12.7,16.4v9.1h8.5v-8.5h12.7v-17c0-9.4-7.6-17-17-17
		c-4.7,0-8.5-3.8-8.5-8.5v-8.5H297.6z"/>
	<path class="st1" d="M374,144.9l-36.4-36.4H170.3v102c-12.5,0.7-23.6,7.9-29.3,19.2l-0.4,0.9v19.7l1.2,1.2
		c10.1,10.1,15.7,23.6,15.7,38v22.7h-4.2c-10.2,0-18.8,7.3-20.8,17h-0.4c-11.7,0-21.2,9.5-21.2,21.2v21.2h127.3v-17h16.9
		c10.5,10.5,24.9,17,40.8,17h3.4c15.9,0,30.4-6.5,40.8-17H374V144.9z M340.1,122.9l19.5,19.5h-19.5V122.9z M149.1,246.8v-14.2
		c4.6-8.5,13.5-13.8,23.2-13.8h4.5c9.8,0,18.6,5.2,23.2,13.8v14.2c-11,11.6-17,26.7-17,42.7v22.7h-17v-22.7
		C166.1,273.4,160.1,258.4,149.1,246.8z M119.4,363.1v-8.5h93.4v-8.5h-92.6c1.8-4.9,6.4-8.5,11.9-8.5h17v-8.5h-7.7
		c1.8-4.9,6.4-8.5,11.9-8.5h42.4c5.5,0,10.2,3.6,11.9,8.5h-50.1v8.5H217c5.5,0,10.2,3.6,11.9,8.5h-7.7v8.5h8.5v8.5H119.4z
		 M299.3,363.1h-3.4c-27.1,0-49.2-22.1-49.2-49.2c0-8.7,2.3-17.3,6.7-24.8l21.2-36.3h46l21.2,36.3c4.4,7.5,6.7,16.1,6.7,24.8
		C348.5,341,326.5,363.1,299.3,363.1z M320.8,244.2h-46.4l-22.6-33.8c-0.6-0.9-0.9-2-0.9-3.1c0-3.1,2.5-5.5,5.5-5.5h3
		c2,0,5,6.4,6.8,10.3c3.3,7.1,7,15.2,14.5,15.2c7.5,0,10.3-6.4,12.4-11c1.9-4.5,2.9-5.9,4.6-5.9c1.7,0,2.7,1.5,4.6,5.9
		c2,4.7,4.8,11,12.4,11c7.5,0,11.2-8.1,14.5-15.2c1.8-3.8,4.7-10.3,6.8-10.3h3c3.1,0,5.5,2.5,5.5,5.5c0,1.1-0.3,2.2-0.9,3.1
		L320.8,244.2z M347.2,346.1c6.2-9.2,9.9-20.3,9.9-32.2c0-10.2-2.7-20.3-7.9-29.1l-21.1-36.1l22.4-33.5c1.5-2.3,2.4-5,2.4-7.8
		c0-7.7-6.3-14-14-14h-3c-7.5,0-11.2,8.1-14.5,15.2c-1.8,3.8-4.7,10.3-6.8,10.3c-1.7,0-2.7-1.5-4.6-5.9c-2-4.7-4.8-11-12.4-11
		c-7.6,0-10.3,6.4-12.4,11c-1.9,4.5-2.9,5.9-4.6,5.9c-2,0-5-6.4-6.8-10.3c-3.3-7.1-7-15.2-14.5-15.2h-3c-7.7,0-14,6.3-14,14
		c0,2.8,0.8,5.5,2.4,7.8l22.3,33.5l-21.1,36.1c-5.1,8.8-7.9,18.9-7.9,29.1c0,11.9,3.6,23,9.9,32.2h-10.3c-2-9.7-10.5-17-20.8-17
		h-0.4c-2-9.7-10.5-17-20.8-17h-4.2v-22.7c0-14.3,5.6-27.8,15.7-38l1.2-1.2v-19.7l-0.4-0.9c-5.7-11.3-16.7-18.5-29.3-19.2v-93.5
		h152.8v33.9h33.9v195.2H347.2z"/>
	<path class="st1" d="M263.7,125.4h59.4v8.5h-59.4V125.4z"/>
	<path class="st1" d="M263.7,142.4h8.5v8.5h-8.5V142.4z"/>
	<path class="st1" d="M280.6,142.4h42.4v8.5h-42.4V142.4z"/>
	<path class="st1" d="M200,167.9h42.4c7,0,12.7-5.7,12.7-12.7v-17c0-7-5.7-12.7-12.7-12.7H200c-7,0-12.7,5.7-12.7,12.7v17
		C187.3,162.2,193,167.9,200,167.9z M195.8,138.2c0-2.3,1.9-4.2,4.2-4.2h42.4c2.3,0,4.2,1.9,4.2,4.2v17c0,2.3-1.9,4.2-4.2,4.2H200
		c-2.3,0-4.2-1.9-4.2-4.2V138.2z"/>
	<path class="st1" d="M263.7,159.4H357v8.5h-93.4V159.4z"/>
	<path class="st1" d="M187.3,176.4h152.8v8.5H187.3V176.4z"/>
	<path class="st1" d="M348.5,176.4h8.5v8.5h-8.5V176.4z"/>
	<path class="st1" d="M187.3,193.3H234v8.5h-46.7V193.3z"/>
</g>
</svg>
